<?xml version="1.0" encoding="utf-8"?>
<!-- Generator: Adobe Illustrator 26.3.1, SVG Export Plug-In . SVG Version: 6.00 Build 0)  -->
<svg version="1.1" id="Layer_1" xmlns="http://www.w3.org/2000/svg" xmlns:xlink="http://www.w3.org/1999/xlink" x="0px" y="0px"
	 viewBox="0 0 500 500" style="enable-background:new 0 0 500 500;" xml:space="preserve">
<g transform="translate(0.000000,330.000000) scale(0.100000,-0.100000)">
	<path d="M773.4,3192.7C605.9,3086,499.1,2935,466,2758.3c-33.1-174.8-33.1-195.1-14.8-311c22-125.1,51.6-173,220.9-351.5
		c119.7-126.9,123.4-134.3,134.3-252.1c7.4-68.1,9.2-165.6,3.7-219c-5.5-53.4-14.8-270.5-20.2-484c-5.5-211.6-12.9-460.1-18.4-552.2
		c-7.4-158.3-12.9-309.2-38.7-1014.1c-11.1-294.5-9.2-318.4,27.6-388.3c93.8-185.9,270.5-242.9,419.6-136.2
		c143.6,104.9,138,42.3,130.6,1529.4c-3.7,1060.1,0,1328.8,18.4,1385.8c16.6,46,51.6,86.5,104.9,123.4
		c158.3,108.6,231.8,261.4,233.7,478.6c1.8,152.8-47.9,322.1-132.5,450.9c-75.5,116-93.8,99.4-141.7-128.8
		c-53.4-254-71.8-298.2-136.2-331.3c-110.4-58.9-307.3-5.5-379.1,99.4c-51.6,75.5-53.4,150.9-5.5,388.3
		C916.9,3275.6,913.2,3281.1,773.4,3192.7L773.4,3192.7z M1121.2-528.7c104.9-92,47.9-294.5-86.5-305.5
		c-53.4-5.5-73.6,3.7-114.1,51.6c-55.2,66.2-60.7,141.7-20.2,220.9C944.6-477.1,1044-462.4,1121.2-528.7L1121.2-528.7L1121.2-528.7z
		"/>
	<path d="M2024.9,2268.8c-5.5-23.9-11.1-88.4-11.1-145.4c0-132.5-29.4-160.2-257.7-246.6c-112.3-42.3-193.3-86.5-224.6-121.5
		L1480,1702V-784.5l-44.2-86.5c-46-90.1-226.4-254-300-272.3c-51.6-14.8-55.2-55.2-7.4-81c108.6-57,329.5,18.4,493.2,167.4
		c92,82.9,126.9,86.5,257.7,27.6c116-55.2,134.3-86.5,134.3-235.5c1.8-152.8,47.9-254,149.1-322.1c68.1-44.2,97.5-51.6,259.5-57
		c226.4-9.2,320.2,14.8,408.6,104.9c77.3,79.2,103.1,154.6,103.1,298.2c0,128.8,40.5,185.9,160.2,226.4
		c126.9,44.2,145.4,38.7,254-64.4c64.4-60.7,128.8-101.2,184.1-119.7c81-23.9,117.8-22,220.9,5.5c47.9,12.9,316.5,274.2,351.5,340.4
		s33.1,224.6-1.8,298.2c-16.6,33.1-66.2,95.7-110.4,139.9c-95.7,93.8-104.9,150.9-44.2,266.9c58.9,116,95.7,138,228.3,138
		c132.5,0,200.6,20.2,272.3,88.4c97.5,92,112.3,141.7,112.3,371.8s-14.8,279.7-112.3,371.8c-71.8,68.1-134.3,88.4-274.2,88.4
		c-103.1,0-125.1,5.5-165.6,46c-53.4,55.2-99.4,154.6-99.4,220.9c0,29.4,33.1,82.9,92,149.1c108.6,117.8,128.8,161.9,128.8,276
		c0,121.5-36.8,185.9-185.9,333.2c-149.1,143.6-198.7,171.1-320.2,171.1c-114.1,0-169.3-25.7-279.7-130.6
		c-106.7-101.2-143.6-108.6-268.7-55.2c-110.4,47.9-141.7,97.5-141.7,224.6c0,176.7,36.8,163.8-460.1,163.8h-438.1L2024.9,2268.8
		L2024.9,2268.8L2024.9,2268.8z M2632.2,1350.4c370-66.2,655.2-351.5,736.1-734.3c82.9-397.5-132.5-817.1-511.7-993.8
		c-342.3-160.2-747.2-90.1-1019.6,174.8c-233.7,228.3-333.2,565-255.8,861.3c90.1,346,360.7,611,697.5,684.7
		C2420.5,1374.4,2494,1376.2,2632.2,1350.4L2632.2,1350.4z"/>
	<path d="M2295.4,1214.2c-305.5-82.9-524.5-333.2-579.8-658.9c-55.2-340.4,125.1-690.2,439.9-844.7c117.8-57,134.3-60.7,327.6-60.7
		c193.3,0,209.8,1.8,327.6,62.6c193.3,99.4,346,285.3,371.8,456.4c25.7,160.2-121.5,305.5-336.8,331.3c-84.7,9.2-90.1,12.9-116,84.7
		c-36.8,110.4-110.4,152.8-287.1,165.6c-77.3,5.5-147.2,5.5-152.8,1.8c-11.1-11.1-31.3-600-22-614.7c3.7-5.5,75.5-9.2,160.2-9.2
		c180.4,0,235.5,29.4,294.5,152.8c35,75.5,36.8,75.5,110.4,64.4c101.2-14.8,173-53.4,196.9-106.7c44.2-97.5-114.1-307.3-296.3-392
		c-320.2-149.1-701.2,9.2-833.8,346c-58.9,150.9-55.2,360.7,7.4,500.6c196.9,428.8,719.6,522.6,1026.9,185.9
		c49.7-55.2,104.9-139.9,125.1-193.3c40.5-110.4,79.2-143.6,128.8-114.1c49.7,31.3,46,86.5-11.1,211.6
		c-156.5,342.3-530,524.5-881.5,430.7L2295.4,1214.2z"/>
	<path d="M2017.5,603.2c5.5-47.9,12.9-51.6,95.7-57c93.8-5.5,121.5,11.1,121.5,75.5c0,25.7-16.6,31.3-112.3,31.3
		C2048.8,653,2013.8,636.4,2017.5,603.2L2017.5,603.2z"/>
	<path d="M2004.6,319.7c-18.4-53.4,3.7-68.1,110.4-75.5c61.3-3.7,93.8,14.8,97.5,55.2l5.5,58.9h-101.2
		C2030.3,358.4,2013.7,352.9,2004.6,319.7L2004.6,319.7L2004.6,319.7z"/>
</g>
</svg>
