<?xml version="1.0" encoding="UTF-8"?><svg id="Layer_1" xmlns="http://www.w3.org/2000/svg" viewBox="0 0 500 500"><g transform="translate(0.000000,330.000000) scale(0.100000,-0.100000)"><path d="M76.86,490.46c-16.79-10.7-27.5-25.84-30.82-43.56-3.32-17.53-3.32-19.56-1.48-31.19,2.21-12.55,5.17-17.35,22.15-35.25,12-12.73,12.37-13.47,13.47-25.28,.74-6.83,.92-16.61,.37-21.96-.55-5.35-1.48-27.13-2.03-48.54-.55-21.22-1.29-46.14-1.85-55.37-.74-15.87-1.29-31.01-3.88-101.69-1.11-29.53-.92-31.93,2.77-38.94,9.41-18.64,27.13-24.36,42.08-13.66,14.4,10.52,13.84,4.24,13.1,153.37-.37,106.31,0,133.25,1.85,138.97,1.66,4.61,5.17,8.67,10.52,12.37,15.87,10.89,23.25,26.21,23.44,47.99,.18,15.32-4.8,32.3-13.29,45.22-7.57,11.63-9.41,9.97-14.21-12.92-5.35-25.47-7.2-29.9-13.66-33.22-11.07-5.91-30.82-.55-38.02,9.97-5.17,7.57-5.35,15.13-.55,38.94,4.43,23.07,4.06,23.62-9.97,14.76ZM111.74,117.28c10.52-9.23,4.8-29.53-8.67-30.64-5.35-.55-7.38,.37-11.44,5.17-5.54,6.64-6.09,14.21-2.03,22.15,4.43,8.49,14.4,9.97,22.15,3.32h0Z"/><path d="M202.36,397.81c-.55-2.4-1.11-8.86-1.11-14.58,0-13.29-2.95-16.06-25.84-24.73-11.26-4.24-19.38-8.67-22.52-12.18l-5.17-5.35V91.63l-4.43-8.67c-4.61-9.04-22.7-25.47-30.08-27.31-5.17-1.48-5.54-5.54-.74-8.12,10.89-5.72,33.04,1.85,49.46,16.79,9.23,8.31,12.73,8.67,25.84,2.77,11.63-5.54,13.47-8.67,13.47-23.62,.18-15.32,4.8-25.47,14.95-32.3,6.83-4.43,9.78-5.17,26.02-5.72,22.7-.92,32.11,1.48,40.97,10.52,7.75,7.94,10.34,15.5,10.34,29.9,0,12.92,4.06,18.64,16.06,22.7,12.73,4.43,14.58,3.88,25.47-6.46,6.46-6.09,12.92-10.15,18.46-12,8.12-2.4,11.81-2.21,22.15,.55,4.8,1.29,31.74,27.5,35.25,34.14,3.51,6.64,3.32,22.52-.18,29.9-1.66,3.32-6.64,9.6-11.07,14.03-9.6,9.41-10.52,15.13-4.43,26.76,5.91,11.63,9.6,13.84,22.89,13.84s20.12,2.03,27.31,8.86c9.78,9.23,11.26,14.21,11.26,37.28s-1.48,28.05-11.26,37.28c-7.2,6.83-13.47,8.86-27.5,8.86-10.34,0-12.55,.55-16.61,4.61-5.35,5.54-9.97,15.5-9.97,22.15,0,2.95,3.32,8.31,9.23,14.95,10.89,11.81,12.92,16.24,12.92,27.68,0,12.18-3.69,18.64-18.64,33.41-14.95,14.4-19.93,17.16-32.11,17.16-11.44,0-16.98-2.58-28.05-13.1-10.7-10.15-14.4-10.89-26.95-5.54-11.07,4.8-14.21,9.78-14.21,22.52,0,17.72,3.69,16.43-46.14,16.43h-43.93l-1.11-4.06h0Zm60.9-92.09c37.1-6.64,65.7-35.25,73.82-73.64,8.31-39.86-13.29-81.94-51.31-99.66-34.33-16.06-74.93-9.04-102.25,17.53-23.44,22.89-33.41,56.66-25.65,86.37,9.04,34.7,36.17,61.27,69.95,68.66,14.21,3.14,21.59,3.32,35.44,.74h0Z"/><path d="M229.49,292.06c-30.64-8.31-52.6-33.41-58.14-66.07-5.54-34.14,12.55-69.21,44.11-84.71,11.81-5.72,13.47-6.09,32.85-6.09s21.04,.18,32.85,6.28c19.38,9.97,34.7,28.61,37.28,45.77,2.58,16.06-12.18,30.64-33.77,33.22-8.49,.92-9.04,1.29-11.63,8.49-3.69,11.07-11.07,15.32-28.79,16.61-7.75,.55-14.76,.55-15.32,.18-1.11-1.11-3.14-60.17-2.21-61.64,.37-.55,7.57-.92,16.06-.92,18.09,0,23.62,2.95,29.53,15.32,3.51,7.57,3.69,7.57,11.07,6.46,10.15-1.48,17.35-5.35,19.75-10.7,4.43-9.78-11.44-30.82-29.71-39.31-32.11-14.95-70.32,.92-83.61,34.7-5.91,15.13-5.54,36.17,.74,50.2,19.75,43,72.16,52.41,102.98,18.64,4.98-5.54,10.52-14.03,12.55-19.38,4.06-11.07,7.94-14.4,12.92-11.44,4.98,3.14,4.61,8.67-1.11,21.22-15.69,34.33-53.15,52.6-88.4,43.19Z"/><path d="M201.62,230.79c.55-4.8,1.29-5.17,9.6-5.72,9.41-.55,12.18,1.11,12.18,7.57,0,2.58-1.66,3.14-11.26,3.14-7.38,0-10.89-1.66-10.52-4.98Z"/><path d="M200.33,202.36c-1.85-5.35,.37-6.83,11.07-7.57,6.15-.37,9.41,1.48,9.78,5.54l.55,5.91h-10.15c-8.67,0-10.34-.55-11.26-3.88h0Z"/></g></svg>