<?xml version="1.0" encoding="UTF-8"?><svg id="Layer_1" xmlns="http://www.w3.org/2000/svg" viewBox="0 0 500 500"><path d="M257.9,226.32c13.5-.02,26.89-2.53,39.47-7.43V12.68c-12.59-4.89-25.98-7.41-39.47-7.43-39.49,0-75.98,21.07-95.72,55.26-19.74,34.2-19.74,76.33,0,110.53,19.74,34.2,56.23,55.26,95.72,55.26h0Zm-25.66-102.62h-11.84c-6.54,.23-12.9-2.12-17.7-6.56-4.81-4.43-7.66-10.59-7.95-17.12,.22-6.22,2.78-12.12,7.17-16.51,4.39-4.39,10.29-6.96,16.51-7.17v-7.89h15.79v7.89c6.22,.22,12.12,2.78,16.51,7.17,4.39,4.39,6.96,10.29,7.17,16.51h-15.79c-.66-4.85-5-8.32-9.87-7.89h-11.84c-4.87-.42-9.21,3.05-9.87,7.89,.66,4.85,5,8.32,9.87,7.89h11.84c6.54-.23,12.9,2.12,17.7,6.56,4.81,4.43,7.66,10.59,7.95,17.12-.22,6.22-2.78,12.12-7.17,16.51-4.39,4.39-10.29,6.96-16.51,7.17v7.89h-15.79v-7.89c-6.22-.22-12.12-2.78-16.51-7.17-4.39-4.39-6.96-10.29-7.17-16.51h15.79c.66,4.85,5,8.32,9.87,7.89h11.84c4.87,.42,9.21-3.05,9.87-7.89-.66-4.85-5-8.32-9.87-7.89Z"/><path d="M76.32,115.79v114.48h-22.74l30.63,51.32,30.63-51.08h-22.74V123.69h31.58v-15.79h-39.47c-4.36,0-7.89,3.54-7.89,7.89h0Z"/><path d="M431.58,107.9h-39.47v15.79h31.58v106.57h-22.74l30.63,51.32,30.63-51.08h-22.74V115.79c0-2.09-.83-4.11-2.31-5.58s-3.49-2.31-5.58-2.31h0Z"/><path d="M32.9,392.1H119.75v-86.84h-35.53v31.58h-15.79v-31.58H32.9v86.84h0Z"/><path d="M92.11,407.89H56.58v31.58h-15.79v-31.58H5.26v86.84H92.1v-86.84h0Z"/><path d="M194.74,407.89h-35.53v31.58h-15.79v-31.58h-35.53v86.84h86.84v-86.84h0Z"/><path d="M467.1,340.78c0,19.62-15.91,35.53-35.53,35.53s-35.53-15.91-35.53-35.53,15.91-35.53,35.53-35.53,35.53,15.91,35.53,35.53"/><path d="M459.22,376.32h-55.26c-9.43-.02-18.48,3.72-25.15,10.38-6.67,6.67-10.4,15.72-10.38,25.15v82.9h126.32v-82.9c.02-9.43-3.72-18.48-10.38-25.15-6.67-6.67-15.72-10.4-25.15-10.38h0Zm19.74,102.63h-15.79v-15.79h15.79v15.79Z"/><path d="M317.58,203.74c1.08,.52,2.27,.79,3.47,.79,1.77,0,3.5-.58,4.9-1.66,26.71-20.95,42.31-53.02,42.31-86.96s-15.6-66.01-42.31-86.96c-2.35-1.86-5.54-2.23-8.25-.96s-4.47,3.96-4.54,6.96V196.64c0,3.01,1.71,5.77,4.42,7.11h0Zm11.37-150.64c15.28,17.31,23.7,39.6,23.7,62.69s-8.43,45.37-23.7,62.69V53.12h0Z"/></svg>