<?xml version="1.0" encoding="UTF-8"?><svg id="Layer_1" xmlns="http://www.w3.org/2000/svg" viewBox="0 0 500 500"><path d="M250.57,398.53h20.68v13.79h-34.46v-48.25h13.79m-135.96,58.14h-8.45c-4.67,.17-9.21-1.51-12.64-4.68-3.43-3.16-5.47-7.56-5.67-12.22,.15-4.44,1.98-8.65,5.12-11.79s7.35-4.97,11.79-5.12v-5.64h11.27v5.64c4.44,.15,8.65,1.98,11.79,5.12,3.14,3.14,4.97,7.35,5.12,11.79h-11.27c-.47-3.46-3.57-5.94-7.05-5.64h-8.45c-3.48-.3-6.58,2.18-7.05,5.64,.47,3.46,3.57,5.94,7.05,5.64h8.45c4.67-.17,9.21,1.51,12.64,4.68,3.43,3.16,5.47,7.56,5.67,12.22-.15,4.44-1.98,8.65-5.12,11.79s-7.35,4.97-11.79,5.12v5.64h-11.27v-5.64c-4.44-.15-8.65-1.98-11.79-5.12-3.14-3.14-4.97-7.35-5.12-11.79h11.27c.47,3.46,3.57,5.94,7.05,5.64h8.45c3.48,.3,6.58-2.18,7.05-5.64-.47-3.46-3.57-5.94-7.05-5.64Zm41.36-140.9c-.09,0-.16-.05-.25-.05h-41.35c-7.61,0-13.78,6.17-13.78,13.78v62.03c0,.14,.07,.26,.08,.39-32.74,3.63-56.94,32.19-55.12,65.07,1.81,32.88,29,58.61,61.94,58.61s60.12-25.73,61.93-58.61c1.81-32.89-22.39-61.45-55.11-65.07,0-.14,.08-.26,.08-.39v-62.03h41.35v2.71c-.03,2.28,1.8,4.14,4.07,4.18h78.64v27.57c0,.13,.06,.22,.07,.34-40.38,3.65-70.74,38.42-68.91,78.92s35.19,72.4,75.74,72.4,73.91-31.89,75.74-72.4c1.83-40.5-28.53-75.27-68.91-78.92,0-.13,.07-.22,.07-.34v-27.57h78.64c2.28-.04,4.1-1.9,4.07-4.18v-2.71h41.35v62.03c0,.14,.06,.26,.08,.39-25.88,2.88-47.21,21.63-53.39,46.93-6.18,25.3,4.1,51.77,25.75,66.26v-30.26h13.78v34.26c0,.92-.19,1.83-.55,2.69,4.62,1.72,9.44,2.86,14.33,3.38v-60.89h13.78v60.89c4.9-.52,9.72-1.66,14.33-3.38-.36-.85-.55-1.76-.55-2.69v-55.1h13.78v51.1c21.64-14.49,31.92-40.96,25.75-66.26-6.18-25.31-27.5-44.05-53.39-46.93h-.02c0-.14,.08-.26,.08-.39v-62.03c0-7.61-6.17-13.78-13.78-13.78h-41.35c-.11,0-.2,.06-.31,.06m63.9,129.8l-13.07-13.06-25.84,25.84-11.1-11.11,36.94-36.95,13.07,13.07,14.18-14.18,11.11,11.1-25.29,25.29ZM295.68,69.27c0,27.86-22.58,50.44-50.44,50.44s-50.44-22.58-50.44-50.44,22.58-50.44,50.44-50.44,50.44,22.58,50.44,50.44m-11.19,54.31h-78.45c-13.38-.03-26.23,5.28-35.7,14.74-9.47,9.47-14.77,22.31-14.74,35.7v117.68h179.32v-117.68c.03-13.38-5.28-26.23-14.74-35.7s-22.31-14.77-35.7-14.74h.01Z"/></svg>