<?xml version="1.0" encoding="UTF-8"?><svg id="Layer_1" xmlns="http://www.w3.org/2000/svg" viewBox="0 0 500 500"><path d="M241.19,275.85v4.77c.09-1.58,.09-3.18,0-4.77Z"/><path d="M397.9,174.16V82.62h-55.39v40.37L250.18,38.74,.85,276.57l73.82,27.69v156.99H425.33v-166.25l73.82-27.69-101.24-93.15h-.01Zm-156.72,119.67h-31.46v87.66h-17.98v-87.66h-31.46v-53.95h40.19c10.81-.02,21.18,4.25,28.82,11.9,7.65,7.65,11.93,18.02,11.9,28.82v13.21h0Zm35.06,88.13c-6.24-4.69-10.5-11.53-11.98-19.18-1.48-7.66-.06-15.6,3.99-22.27,4.04-6.68,10.42-11.61,17.89-13.84v-29.68c-7.47-2.24-13.85-7.17-17.89-13.84-4.04-6.67-5.46-14.6-3.99-22.27s5.74-14.5,11.98-19.18l10.79,14.39c-4.64,3.48-6.54,9.55-4.71,15.05,1.84,5.51,6.99,9.22,12.79,9.22s10.95-3.71,12.79-9.22c1.84-5.51-.06-11.57-4.71-15.05l10.79-14.39c6.24,4.69,10.5,11.53,11.98,19.18,1.48,7.66,.06,15.6-3.99,22.27-4.04,6.68-10.42,11.61-17.89,13.84v29.68c7.47,2.24,13.85,7.17,17.89,13.84s5.46,14.6,3.99,22.27-5.74,14.5-11.98,19.18l-10.79-14.39c4.64-3.48,6.54-9.55,4.71-15.05-1.84-5.51-6.99-9.22-12.79-9.22s-10.95,3.71-12.79,9.22c-1.84,5.51,.06,11.57,4.71,15.05l-10.79,14.39Zm-75.79-124.08h-22.21v17.98h44.96c-1.14-5.16-4.03-9.76-8.17-13.05-4.15-3.28-9.3-5.02-14.58-4.93h0Z"/></svg>