<?xml version="1.0" encoding="UTF-8"?><svg id="Layer_1" xmlns="http://www.w3.org/2000/svg" viewBox="0 0 500 500"><defs><style>.cls-1{fill-rule:evenodd;}</style></defs><path class="cls-1" d="M474.91,223.41c7.2,.04,12.38,3.74,15.62,8.45,2.47,3.59,3.58,7.88,3.14,11.69-.44,3.81-2.18,7.19-6.22,9.93h0c-24.14,16.33-69.18,48.66-112.94,76.92-21.88,14.13-43.43,27.22-61.7,36.69-18.27,9.48-33.79,15.04-40.81,15.04h-.01c-67,.06-116.93-24.69-201.3-8.9v-17.31c.02-1.59-.59-3.13-1.71-4.26-1.12-1.14-2.64-1.77-4.23-1.77s-3.11,.63-4.23,1.77c-1.12,1.13-1.73,2.67-1.71,4.26v43.58h-17.77V234.51h17.77v43.58c-.02,1.59,.59,3.12,1.71,4.26,1.12,1.13,2.64,1.77,4.23,1.77s3.12-.64,4.23-1.77c1.12-1.14,1.73-2.67,1.71-4.26v-14.41c21.47-8.55,56.42-17.04,75.92-17.04,22.49,0,37.85,4.07,52.54,8.33,14.7,4.25,28.9,8.8,47.51,8.8h.17l64.21-1.9h.02c9.19-.31,16.51,6.98,16.51,14.93s-7.21,14.51-16.96,14.93h0l-122.11,5.17c-1.59,.05-3.1,.73-4.18,1.89-1.09,1.17-1.66,2.72-1.59,4.3,.07,1.59,.77,3.09,1.95,4.16,1.18,1.07,2.74,1.62,4.33,1.53l122.11-5.17h0c11.61-.5,22.11-7.22,26.35-17.11h0c.2-.07,.39-.15,.58-.24l123.84-59.51c4.9-2.36,9.23-3.33,13.01-3.31h0Z"/><path class="cls-1" d="M6.23,234.5H29.12v164.98H6.23V234.5Z"/><path class="cls-1" d="M201.06,100.51c-25.8,0-46.63,20.77-46.63,46.63s20.83,46.63,46.63,46.63c19.88,0,36.67-12.33,43.47-29.73,.97-2.5,1.63-5.12,2.23-7.99,.37-2.16,.64-4.33,.74-6.5h0c0-.07,0-.12,0-.19,.06-.63,.18-1.34,.18-2.23,0-2.97-.27-5.78-.74-8.55-4.08-21.65-23.01-38.09-45.89-38.09h0Zm0,28.98c9.68,0,17.65,7.97,17.65,17.65s-7.93,17.65-17.65,17.65-17.65-7.96-17.65-17.65,8-17.65,17.65-17.65Z"/><path class="cls-1" d="M330.28,115.36l14.58,19.6c1.11,1.48,2.84,2.37,4.69,2.4,1.85,.02,3.61-.81,4.75-2.27l15.44-19.62,10.89,18.85c.95,1.65,2.63,2.74,4.52,2.94,1.89,.2,3.76-.51,5.03-1.92l17.66-19.56,13.44,19.59-19.54,25.41h-143.83c.2-.83,.39-1.65,.56-2.48h0c.01-.06,.02-.12,.04-.18,.44-2.53,.77-5.14,.91-7.88,0-.04,0-.07,0-.11h0c.07-1.11,.07-2.1,.07-2.96,0-2.88-.21-5.67-.58-8.38h49.5c1.79,0,3.49-.81,4.62-2.2l17.23-21.23h0Z"/></svg>