<?xml version="1.0" standalone="no"?>
<!DOCTYPE svg PUBLIC "-//W3C//DTD SVG 20010904//EN"
 "http://www.w3.org/TR/2001/REC-SVG-20010904/DTD/svg10.dtd">
<svg version="1.0" xmlns="http://www.w3.org/2000/svg"
 width="353.000000pt" height="330.000000pt" viewBox="0 0 353.000000 330.000000"
 preserveAspectRatio="xMidYMid meet">

<g transform="translate(0.000000,330.000000) scale(0.100000,-0.100000)"
fill="#000000" stroke="none">
<path d="M766 3040 c-91 -58 -149 -140 -167 -236 -18 -95 -18 -106 -8 -169 12
-68 28 -94 120 -191 65 -69 67 -73 73 -137 4 -37 5 -90 2 -119 -3 -29 -8 -147
-11 -263 -3 -115 -7 -250 -10 -300 -4 -86 -7 -168 -21 -551 -6 -160 -5 -173
15 -211 51 -101 147 -132 228 -74 78 57 75 23 71 831 -2 576 0 722 10 753 9
25 28 47 57 67 86 59 126 142 127 260 1 83 -26 175 -72 245 -41 63 -51 54 -77
-70 -29 -138 -39 -162 -74 -180 -60 -32 -167 -3 -206 54 -28 41 -29 82 -3 211
24 125 22 128 -54 80z m189 -2022 c57 -50 26 -160 -47 -166 -29 -3 -40 2 -62
28 -30 36 -33 77 -11 120 24 46 78 54 120 18z"/>
<path d="M1446 2538 c-3 -13 -6 -48 -6 -79 0 -72 -16 -87 -140 -134 -61 -23
-105 -47 -122 -66 l-28 -29 0 -675 0 -676 -24 -47 c-25 -49 -123 -138 -163
-148 -28 -8 -30 -30 -4 -44 59 -31 179 10 268 91 50 45 69 47 140 15 63 -30
73 -47 73 -128 1 -83 26 -138 81 -175 37 -24 53 -28 141 -31 123 -5 174 8 222
57 42 43 56 84 56 162 0 70 22 101 87 123 69 24 79 21 138 -35 35 -33 70 -55
100 -65 44 -13 64 -12 120 3 26 7 172 149 191 185 19 36 18 122 -1 162 -9 18
-36 52 -60 76 -52 51 -57 82 -24 145 32 63 52 75 124 75 75 0 109 11 148 48
53 50 61 77 61 202 0 125 -8 152 -61 202 -39 37 -73 48 -149 48 -56 0 -68 3
-90 25 -29 30 -54 84 -54 120 0 16 18 45 50 81 59 64 70 88 70 150 0 66 -20
101 -101 181 -81 78 -108 93 -174 93 -62 0 -92 -14 -152 -71 -58 -55 -78 -59
-146 -30 -60 26 -77 53 -77 122 0 96 20 89 -250 89 l-238 0 -6 -22z m330 -499
c201 -36 356 -191 400 -399 45 -216 -72 -444 -278 -540 -186 -87 -406 -49
-554 95 -127 124 -181 307 -139 468 49 188 196 332 379 372 77 17 117 18 192
4z"/>
<path d="M1593 1965 c-166 -45 -285 -181 -315 -358 -30 -185 68 -375 239 -459
64 -31 73 -33 178 -33 106 0 114 1 178 34 105 54 188 155 202 248 14 87 -66
166 -183 180 -46 5 -49 7 -63 46 -20 60 -60 83 -156 90 -42 3 -80 3 -83 1 -6
-6 -17 -326 -12 -334 2 -3 41 -5 87 -5 98 0 128 16 160 83 19 41 20 41 60 35
55 -8 94 -29 107 -58 24 -53 -62 -167 -161 -213 -174 -81 -381 5 -453 188 -32
82 -30 196 4 272 107 233 391 284 558 101 27 -30 57 -76 68 -105 22 -60 43
-78 70 -62 27 17 25 47 -6 115 -85 186 -288 285 -479 234z"/>
<path d="M1442 1633 c3 -26 7 -28 52 -31 51 -3 66 6 66 41 0 14 -9 17 -61 17
-60 0 -60 0 -57 -27z"/>
<path d="M1435 1479 c-10 -29 2 -37 60 -41 50 -3 50 -3 53 30 l3 32 -55 0
c-47 0 -56 -3 -61 -21z"/>
</g>
</svg>
