<?xml version="1.0" encoding="UTF-8"?>
<svg width="700pt" height="700pt" version="1.1" viewBox="0 0 700 700" xmlns="http://www.w3.org/2000/svg" xmlns:xlink="http://www.w3.org/1999/xlink">
 <defs>
  <symbol id="p" overflow="visible">
   <path d="m32.344-1.9375c-1.668 0.86719-3.4062 1.5156-5.2188 1.9531-1.8047 0.44531-3.6836 0.67188-5.6406 0.67188-5.8672 0-10.512-1.6328-13.938-4.9062-3.4297-3.2812-5.1406-7.7266-5.1406-13.344 0-5.625 1.7109-10.07 5.1406-13.344 3.4258-3.2812 8.0703-4.9219 13.938-4.9219 1.957 0 3.8359 0.21875 5.6406 0.65625 1.8125 0.4375 3.5508 1.0898 5.2188 1.9531v7.2812c-1.6797-1.1445-3.3359-1.9844-4.9688-2.5156-1.6367-0.53125-3.3594-0.79688-5.1719-0.79688-3.2422 0-5.7891 1.0391-7.6406 3.1094-1.8555 2.0742-2.7812 4.9336-2.7812 8.5781 0 3.625 0.92578 6.4805 2.7812 8.5625 1.8516 2.0742 4.3984 3.1094 7.6406 3.1094 1.8125 0 3.5352-0.26562 5.1719-0.79688 1.6328-0.53906 3.2891-1.3828 4.9688-2.5312z"/>
  </symbol>
  <symbol id="i" overflow="visible">
   <path d="m23.672-19.219c-0.74219-0.34375-1.4766-0.59766-2.2031-0.76562-0.73047-0.16406-1.4648-0.25-2.2031-0.25-2.1797 0-3.8516 0.69922-5.0156 2.0938-1.168 1.3984-1.75 3.3867-1.75 5.9688v12.172h-8.4375v-26.406h8.4375v4.3438c1.082-1.7266 2.3281-2.9883 3.7344-3.7812 1.4062-0.80078 3.0859-1.2031 5.0469-1.2031 0.28906 0 0.59766 0.015625 0.92188 0.046875 0.33203 0.023438 0.8125 0.070312 1.4375 0.14062z"/>
  </symbol>
  <symbol id="b" overflow="visible">
   <path d="m30.406-13.266v2.3906h-19.734c0.20703 1.9922 0.92188 3.4805 2.1406 4.4688 1.2266 0.99219 2.9453 1.4844 5.1562 1.4844 1.7695 0 3.5859-0.25781 5.4531-0.78125 1.8633-0.53125 3.7734-1.332 5.7344-2.4062v6.5c-1.9922 0.76172-3.9844 1.3359-5.9844 1.7188-1.9922 0.38281-3.9844 0.57812-5.9844 0.57812-4.7812 0-8.4961-1.2109-11.141-3.6406-2.6484-2.4258-3.9688-5.832-3.9688-10.219 0-4.3125 1.2969-7.7031 3.8906-10.172 2.6016-2.4688 6.1875-3.7031 10.75-3.7031 4.1445 0 7.4609 1.25 9.9531 3.75 2.4883 2.5 3.7344 5.8438 3.7344 10.031zm-8.6719-2.8125c0-1.6016-0.46875-2.8945-1.4062-3.875-0.92969-0.97656-2.1484-1.4688-3.6562-1.4688-1.6367 0-2.9648 0.46094-3.9844 1.375-1.0234 0.91797-1.6562 2.2422-1.9062 3.9688z"/>
  </symbol>
  <symbol id="a" overflow="visible">
   <path d="m15.891-11.875c-1.7617 0-3.0898 0.29688-3.9844 0.89062-0.88672 0.59375-1.3281 1.4766-1.3281 2.6406 0 1.0625 0.35938 1.9023 1.0781 2.5156 0.71875 0.60547 1.7109 0.90625 2.9844 0.90625 1.582 0 2.9141-0.56641 4-1.7031 1.0938-1.1445 1.6406-2.5781 1.6406-4.2969v-0.95312zm12.891-3.1875v15.062h-8.5v-3.9062c-1.1367 1.5938-2.4141 2.7617-3.8281 3.5-1.418 0.72656-3.1367 1.0938-5.1562 1.0938-2.7422 0-4.9648-0.79688-6.6719-2.3906-1.6992-1.6016-2.5469-3.6758-2.5469-6.2188 0-3.0938 1.0625-5.3633 3.1875-6.8125 2.1328-1.4453 5.4766-2.1719 10.031-2.1719h4.9844v-0.65625c0-1.332-0.53125-2.3047-1.5938-2.9219-1.0547-0.625-2.6953-0.9375-4.9219-0.9375-1.8047 0-3.4844 0.18359-5.0469 0.54688-1.5547 0.35547-2.9961 0.89062-4.3281 1.6094v-6.4375c1.8008-0.4375 3.6133-0.76953 5.4375-1 1.8203-0.22656 3.6445-0.34375 5.4688-0.34375 4.7578 0 8.1953 0.94531 10.312 2.8281 2.1133 1.875 3.1719 4.9297 3.1719 9.1562z"/>
  </symbol>
  <symbol id="h" overflow="visible">
   <path d="m13.266-33.906v7.5h8.7031v6.0312h-8.7031v11.203c0 1.2305 0.24219 2.0625 0.73438 2.5 0.48828 0.42969 1.457 0.64062 2.9062 0.64062h4.3281v6.0312h-7.2344c-3.3359 0-5.6992-0.69141-7.0938-2.0781-1.3867-1.3945-2.0781-3.7578-2.0781-7.0938v-11.203h-4.1875v-6.0312h4.1875v-7.5z"/>
  </symbol>
  <symbol id="g" overflow="visible">
   <path d="m22.016-22.531v-14.156h8.4844v36.688h-8.4844v-3.8125c-1.1562 1.5547-2.4375 2.6953-3.8438 3.4219-1.3984 0.71875-3.0156 1.0781-4.8594 1.0781-3.25 0-5.9219-1.2891-8.0156-3.875-2.0859-2.5938-3.125-5.9219-3.125-9.9844 0-4.0703 1.0391-7.3984 3.125-9.9844 2.0938-2.5938 4.7656-3.8906 8.0156-3.8906 1.8203 0 3.4375 0.37109 4.8438 1.1094 1.4141 0.73047 2.7031 1.8672 3.8594 3.4062zm-5.5625 17.078c1.8125 0 3.1914-0.65625 4.1406-1.9688 0.94531-1.3203 1.4219-3.2383 1.4219-5.75 0-2.5195-0.47656-4.4375-1.4219-5.75-0.94922-1.3203-2.3281-1.9844-4.1406-1.9844-1.793 0-3.1641 0.66406-4.1094 1.9844-0.94922 1.3125-1.4219 3.2305-1.4219 5.75 0 2.5117 0.47266 4.4297 1.4219 5.75 0.94531 1.3125 2.3164 1.9688 4.1094 1.9688z"/>
  </symbol>
  <symbol id="f" overflow="visible">
   <path d="m18.109-5.4531c1.8008 0 3.1758-0.65625 4.125-1.9688 0.95703-1.3203 1.4375-3.2383 1.4375-5.75 0-2.5195-0.48047-4.4375-1.4375-5.75-0.94922-1.3203-2.3242-1.9844-4.125-1.9844-1.8125 0-3.2031 0.66797-4.1719 2-0.96094 1.3242-1.4375 3.2344-1.4375 5.7344 0 2.4922 0.47656 4.4023 1.4375 5.7344 0.96875 1.3242 2.3594 1.9844 4.1719 1.9844zm-5.6094-17.078c1.1562-1.5391 2.4414-2.6758 3.8594-3.4062 1.4141-0.73828 3.0391-1.1094 4.875-1.1094 3.2578 0 5.9297 1.2969 8.0156 3.8906 2.0938 2.5859 3.1406 5.9141 3.1406 9.9844 0 4.0625-1.0469 7.3906-3.1406 9.9844-2.0859 2.5859-4.7578 3.875-8.0156 3.875-1.8359 0-3.4609-0.36719-4.875-1.0938-1.418-0.73828-2.7031-1.875-3.8594-3.4062v3.8125h-8.4375v-36.688h8.4375z"/>
  </symbol>
  <symbol id="e" overflow="visible">
   <path d="m0.59375-26.406h8.4375l7.0938 17.922 6.0312-17.922h8.4375l-11.094 28.906c-1.1172 2.9375-2.418 4.9883-3.9062 6.1562-1.4922 1.1758-3.4492 1.7656-5.875 1.7656h-4.8906v-5.5469h2.6406c1.4375 0 2.4766-0.23047 3.125-0.6875 0.65625-0.44922 1.1641-1.2617 1.5312-2.4375l0.23438-0.73438z"/>
  </symbol>
  <symbol id="d" overflow="visible">
   <path d="m28.922-34.094v7.4531c-1.9297-0.86328-3.8125-1.5156-5.6562-1.9531-1.8359-0.4375-3.5703-0.65625-5.2031-0.65625-2.168 0-3.7734 0.29688-4.8125 0.89062-1.043 0.59375-1.5625 1.5234-1.5625 2.7812 0 0.9375 0.34766 1.6719 1.0469 2.2031 0.70703 0.53125 1.9766 0.98438 3.8125 1.3594l3.875 0.78125c3.9062 0.78125 6.6797 1.9766 8.3281 3.5781 1.6562 1.6055 2.4844 3.8828 2.4844 6.8281 0 3.8867-1.1523 6.7773-3.4531 8.6719-2.3047 1.8984-5.8203 2.8438-10.547 2.8438-2.2305 0-4.4688-0.21484-6.7188-0.64062s-4.5-1.0547-6.75-1.8906v-7.6562c2.25 1.1992 4.4219 2.1016 6.5156 2.7031 2.1016 0.60547 4.1289 0.90625 6.0781 0.90625 1.9766 0 3.4922-0.32812 4.5469-0.98438 1.0508-0.66406 1.5781-1.6133 1.5781-2.8438 0-1.0938-0.35938-1.9375-1.0781-2.5312-0.71094-0.60156-2.1328-1.1406-4.2656-1.6094l-3.5156-0.78125c-3.5234-0.75-6.0938-1.9453-7.7188-3.5938-1.625-1.6562-2.4375-3.8828-2.4375-6.6875 0-3.5 1.1289-6.1914 3.3906-8.0781 2.2578-1.8828 5.5156-2.8281 9.7656-2.8281 1.9258 0 3.9102 0.14844 5.9531 0.4375 2.0508 0.28125 4.1641 0.71484 6.3438 1.2969z"/>
  </symbol>
  <symbol id="o" overflow="visible">
   <path d="m28.531-22.016c1.0625-1.6328 2.3281-2.8789 3.7969-3.7344 1.4688-0.86328 3.082-1.2969 4.8438-1.2969 3.0391 0 5.3516 0.9375 6.9375 2.8125 1.582 1.875 2.375 4.5938 2.375 8.1562v16.078h-8.4844v-13.766c0.019531-0.20703 0.03125-0.42188 0.03125-0.64062 0.007812-0.21875 0.015625-0.53125 0.015625-0.9375 0-1.875-0.27734-3.2266-0.82812-4.0625-0.54297-0.84375-1.4297-1.2656-2.6562-1.2656-1.6055 0-2.8438 0.66406-3.7188 1.9844-0.86719 1.3125-1.3203 3.2188-1.3594 5.7188v12.969h-8.4844v-13.766c0-2.9258-0.25-4.8047-0.75-5.6406-0.5-0.84375-1.3984-1.2656-2.6875-1.2656-1.6172 0-2.8672 0.66797-3.75 2-0.875 1.3242-1.3125 3.2188-1.3125 5.6875v12.984h-8.5v-26.406h8.5v3.875c1.0312-1.5 2.2188-2.625 3.5625-3.375 1.3438-0.75781 2.8281-1.1406 4.4531-1.1406 1.8203 0 3.4297 0.44531 4.8281 1.3281 1.3945 0.875 2.457 2.1094 3.1875 3.7031z"/>
  </symbol>
  <symbol id="c" overflow="visible">
   <path d="m24.688-25.578v6.4062c-1.8125-0.75-3.5625-1.3125-5.25-1.6875-1.6797-0.375-3.2617-0.5625-4.75-0.5625-1.6055 0-2.7969 0.19922-3.5781 0.59375-0.77344 0.39844-1.1562 1.0117-1.1562 1.8438 0 0.67969 0.28906 1.1992 0.875 1.5625 0.59375 0.36719 1.6484 0.63281 3.1719 0.79688l1.4844 0.21875c4.3203 0.55469 7.2266 1.4609 8.7188 2.7188 1.5 1.25 2.25 3.2188 2.25 5.9062 0 2.8125-1.0391 4.9297-3.1094 6.3438-2.0742 1.418-5.1719 2.125-9.2969 2.125-1.7422 0-3.543-0.14062-5.4062-0.42188-1.8672-0.26953-3.7773-0.67969-5.7344-1.2344v-6.4062c1.6758 0.8125 3.3945 1.4297 5.1562 1.8438 1.7695 0.40625 3.5703 0.60938 5.4062 0.60938 1.6445 0 2.8828-0.22656 3.7188-0.6875 0.83203-0.45703 1.25-1.1328 1.25-2.0312 0-0.75-0.28906-1.3047-0.85938-1.6719-0.57422-0.375-1.7188-0.66406-3.4375-0.875l-1.4844-0.1875c-3.75-0.46875-6.3828-1.3359-7.8906-2.6094-1.5117-1.2812-2.2656-3.2188-2.2656-5.8125 0-2.7891 0.95703-4.8633 2.875-6.2188 1.9141-1.3516 4.8516-2.0312 8.8125-2.0312 1.5625 0 3.1953 0.12109 4.9062 0.35938 1.7188 0.24219 3.582 0.60938 5.5938 1.1094z"/>
  </symbol>
  <symbol id="n" overflow="visible">
   <path d="m30.594-16.078v16.078h-8.4844v-12.266c0-2.3008-0.054687-3.8828-0.15625-4.75-0.09375-0.86328-0.27344-1.5039-0.53125-1.9219-0.32422-0.53906-0.77344-0.96094-1.3438-1.2656-0.5625-0.3125-1.2031-0.46875-1.9219-0.46875-1.7617 0-3.1484 0.68359-4.1562 2.0469-1 1.3555-1.5 3.2344-1.5 5.6406v12.984h-8.4375v-36.688h8.4375v14.156c1.2695-1.5391 2.6172-2.6758 4.0469-3.4062 1.4258-0.73828 3.0039-1.1094 4.7344-1.1094 3.0508 0 5.3633 0.9375 6.9375 2.8125 1.582 1.875 2.375 4.5938 2.375 8.1562z"/>
  </symbol>
  <symbol id="m" overflow="visible">
   <path d="m4.0625-26.406h8.4375v26.406h-8.4375zm0-10.281h8.4375v6.8906h-8.4375z"/>
  </symbol>
  <symbol id="l" overflow="visible">
   <path d="m25.391-25.578v6.8906c-1.1484-0.78906-2.2969-1.375-3.4531-1.75s-2.3555-0.5625-3.5938-0.5625c-2.3555 0-4.1875 0.6875-5.5 2.0625s-1.9688 3.2969-1.9688 5.7656c0 2.4609 0.65625 4.3828 1.9688 5.7656 1.3125 1.375 3.1445 2.0625 5.5 2.0625 1.3203 0 2.5703-0.19531 3.75-0.59375 1.1875-0.39453 2.2852-0.97656 3.2969-1.75v6.9062c-1.3242 0.49219-2.668 0.85156-4.0312 1.0938-1.3555 0.25-2.7148 0.375-4.0781 0.375-4.7617 0-8.4844-1.2188-11.172-3.6562-2.6875-2.4453-4.0312-5.8477-4.0312-10.203 0-4.3516 1.3438-7.7539 4.0312-10.203 2.6875-2.4453 6.4102-3.6719 11.172-3.6719 1.3828 0 2.75 0.125 4.0938 0.375 1.3438 0.24219 2.6797 0.60547 4.0156 1.0938z"/>
  </symbol>
  <symbol id="k" overflow="visible">
   <path d="m16.625-21c-1.875 0-3.3047 0.67188-4.2812 2.0156-0.98047 1.3438-1.4688 3.2812-1.4688 5.8125s0.48828 4.4688 1.4688 5.8125c0.97656 1.3438 2.4062 2.0156 4.2812 2.0156 1.832 0 3.2344-0.67188 4.2031-2.0156 0.97656-1.3438 1.4688-3.2812 1.4688-5.8125s-0.49219-4.4688-1.4688-5.8125c-0.96875-1.3438-2.3711-2.0156-4.2031-2.0156zm0-6.0469c4.5391 0 8.0859 1.2305 10.641 3.6875 2.5508 2.4492 3.8281 5.8438 3.8281 10.188 0 4.3359-1.2773 7.7305-3.8281 10.188-2.5547 2.4492-6.1016 3.6719-10.641 3.6719-4.5625 0-8.1328-1.2227-10.703-3.6719-2.5625-2.457-3.8438-5.8516-3.8438-10.188 0-4.3438 1.2812-7.7383 3.8438-10.188 2.5703-2.457 6.1406-3.6875 10.703-3.6875z"/>
  </symbol>
  <symbol id="j" overflow="visible">
   <path d="m30.594-16.078v16.078h-8.4844v-12.312c0-2.2695-0.054687-3.8359-0.15625-4.7031-0.09375-0.86328-0.27344-1.5039-0.53125-1.9219-0.32422-0.53906-0.77344-0.96094-1.3438-1.2656-0.5625-0.3125-1.2031-0.46875-1.9219-0.46875-1.7617 0-3.1484 0.68359-4.1562 2.0469-1 1.3555-1.5 3.2344-1.5 5.6406v12.984h-8.4375v-26.406h8.4375v3.875c1.2695-1.5391 2.6172-2.6758 4.0469-3.4062 1.4258-0.73828 3.0039-1.1094 4.7344-1.1094 3.0508 0 5.3633 0.9375 6.9375 2.8125 1.582 1.875 2.375 4.5938 2.375 8.1562z"/>
  </symbol>
 </defs>
 <g>
  <path d="m552.65 386.76c0-0.19531 0.10547-0.35937 0.10547-0.55078v-86.898c0-10.664-8.6445-19.309-19.309-19.309h-57.934c-0.15234 0-0.27734 0.078125-0.43359 0.085938-1.9648-15.215-11.25-28.508-24.863-35.59l-54.492-27.949c-7.1016-3.6992-11.539-11.062-11.5-19.07v-16.074c1.8359-2.1641 3.5586-4.4219 5.168-6.7578 7.3633-10.762 13.07-22.562 16.934-35.012 7.0664-2.4531 11.656-9.2852 11.258-16.75v-23.434c0.30469-4.8164-1.4492-9.5352-4.8281-12.977v-33.793s6.7578-52.68-62.758-52.68-62.758 52.668-62.758 52.668v33.793c-3.3828 3.4492-5.1367 8.168-4.8281 12.988v23.402c-0.33594 5.7891 2.3047 11.344 7.0078 14.734 3.7617 15.871 10.793 30.785 20.645 43.785v15.594c0.035156 7.7422-4.1094 14.898-10.844 18.723l-50.891 28.445c-13.176 7.4844-21.926 20.867-23.5 35.934-0.12891 0-0.22266-0.066406-0.34766-0.066406h-57.934c-10.664 0-19.309 8.6445-19.309 19.309v86.898c0 0.19141 0.097656 0.35547 0.10547 0.55078-45.855 5.0703-79.754 45.086-77.215 91.152 2.5391 46.062 40.629 82.113 86.766 82.113 46.133 0 84.223-36.051 86.762-82.113 2.5391-46.066-31.359-86.082-77.215-91.152 0-0.19531 0.10547-0.35937 0.10547-0.55078v-86.898h57.934v3.8047c-0.035156 3.1914 2.5156 5.8047 5.7031 5.8516h110.16v38.621c0 0.17578 0.089844 0.30859 0.097656 0.48437-56.566 5.1094-99.098 53.82-96.539 110.56 2.5586 56.738 49.301 101.42 106.1 101.42s103.54-44.684 106.1-101.42c2.5586-56.738-39.973-105.45-96.539-110.56 0-0.17578 0.097656-0.30859 0.097656-0.48437v-38.621h110.16c3.1875-0.046875 5.7383-2.6602 5.7031-5.8516v-3.8047h57.934v86.898c0 0.19141 0.09375 0.35547 0.10547 0.55078-36.262 4.0391-66.137 30.301-74.793 65.746-8.6602 35.441 5.75 72.52 36.066 92.82v-33.602c0-5.332 4.3203-9.6523 9.6562-9.6523 5.332 0 9.6523 4.3203 9.6523 9.6523v39.203c-0.003907 1.293-0.26562 2.5742-0.76953 3.7656 6.4688 2.4102 13.215 4 20.082 4.7305v-76.664c0-5.332 4.3203-9.6562 9.6523-9.6562 5.3359 0 9.6562 4.3242 9.6562 9.6562v76.664c6.8672-0.73047 13.613-2.3203 20.082-4.7305-0.50391-1.1914-0.76562-2.4727-0.76953-3.7656v-68.168c0-5.332 4.3203-9.6562 9.6523-9.6562 5.332 0 9.6562 4.3242 9.6562 9.6562v62.566c30.316-20.301 44.723-57.379 36.066-92.82-8.6562-35.445-38.531-61.707-74.793-65.746zm-382.24 38.07v6.4688h5.793c5.332 0 9.6562 4.3242 9.6562 9.6562s-4.3242 9.6523-9.6562 9.6523h-23.172c-3.2773 0.35938-5.7539 3.1289-5.7539 6.4219 0 3.293 2.4766 6.0625 5.7539 6.4219h7.7227c12.078 0.33203 22.305 8.9961 24.621 20.852s-3.9023 23.73-14.965 28.582v8.4961c0 5.332-4.3242 9.6562-9.6562 9.6562-5.332 0-9.6562-4.3242-9.6562-9.6562v-6.4688h-13.516c-5.332 0-9.6562-4.3242-9.6562-9.6562 0-5.332 4.3242-9.6523 9.6562-9.6523h23.172c3.2773-0.35937 5.7539-3.1289 5.7539-6.4219 0-3.293-2.4766-6.0625-5.7539-6.4219h-7.7227c-13.598-0.33203-24.594-11.184-25.105-24.773-0.51172-13.594 9.6406-25.238 23.172-26.59v-6.5664c0-5.332 4.3242-9.6562 9.6562-9.6562 5.332 0 9.6562 4.3242 9.6562 9.6562zm189.24-19.312v38.621h19.309c5.332 0 9.6562 4.3242 9.6562 9.6562s-4.3242 9.6562-9.6562 9.6562h-28.965c-5.332 0-9.6562-4.3242-9.6562-9.6562v-48.277c0-5.332 4.3242-9.6523 9.6562-9.6523s9.6562 4.3203 9.6562 9.6523zm228.92 35.824-19.309 19.309c-3.7969 3.7656-9.918 3.7656-13.711 0l-12.457-12.551-31.762 31.859c-3.8086 3.7344-9.9062 3.7344-13.711 0-3.7656-3.793-3.7656-9.9141 0-13.707l38.621-38.621c3.793-3.7656 9.9141-3.7656 13.707 0l12.457 12.551 12.453-12.551c2.4492-2.4492 6.0195-3.4062 9.3672-2.5117 3.3438 0.89844 5.957 3.5117 6.8555 6.8555 0.89453 3.3477-0.0625 6.918-2.5117 9.3672z"/>
  <use x="70" y="704.828125" xlink:href="#p"/>
  <use x="105.429688" y="704.828125" xlink:href="#i"/>
  <use x="129.238281" y="704.828125" xlink:href="#b"/>
  <use x="161.980469" y="704.828125" xlink:href="#a"/>
  <use x="194.554688" y="704.828125" xlink:href="#h"/>
  <use x="217.632812" y="704.828125" xlink:href="#b"/>
  <use x="250.375" y="704.828125" xlink:href="#g"/>
  <use x="301.738281" y="704.828125" xlink:href="#f"/>
  <use x="336.296875" y="704.828125" xlink:href="#e"/>
  <use x="384.570312" y="704.828125" xlink:href="#d"/>
  <use x="419.339844" y="704.828125" xlink:href="#o"/>
  <use x="469.644531" y="704.828125" xlink:href="#a"/>
  <use x="502.21875" y="704.828125" xlink:href="#c"/>
  <use x="530.953125" y="704.828125" xlink:href="#n"/>
  <use x="565.324219" y="704.828125" xlink:href="#m"/>
  <use x="581.871094" y="704.828125" xlink:href="#l"/>
  <use x="610.488281" y="704.828125" xlink:href="#k"/>
  <use x="643.652344" y="704.828125" xlink:href="#j"/>
  <use x="678.019531" y="704.828125" xlink:href="#c"/>
 </g>
</svg>
